{"asset":{"version":"2.0","generator":"babylon.js glTF exporter for maya 2018 v1.3.0"},"scene":0,"scenes":[{"nodes":[0],"extensions":{}}],"nodes":[{"mesh":0,"translation":[0.0,0.0,0.0],"rotation":[0.0,0.0,0.0,1.0],"scale":[1.0,1.0,1.0],"name":"arrow"}],"meshes":[{"primitives":[{"attributes":{"POSITION":1,"NORMAL":2,"TANGENT":3,"TEXCOORD_0":4},"indices":0,"mode":4,"material":0}],"name":"arrow"}],"accessors":[{"bufferView":0,"componentType":5123,"count":456,"type":"SCALAR","name":"accessorIndices"},{"bufferView":1,"componentType":5126,"count":324,"max":[6.97142,5.98308754,78.98784],"min":[-6.97142,-8.732783,-86.72156],"type":"VEC3","name":"accessorPositions"},{"bufferView":1,"byteOffset":3888,"componentType":5126,"count":324,"type":"VEC3","name":"accessorNormals"},{"bufferView":2,"componentType":5126,"count":324,"type":"VEC4","name":"accessorTangents"},{"bufferView":3,"componentType":5126,"count":324,"type":"VEC2","name":"accessorUVs"}],"bufferViews":[{"buffer":0,"byteLength":912,"name":"bufferViewScalar"},{"buffer":0,"byteOffset":912,"byteLength":7776,"byteStride":12,"name":"bufferViewFloatVec3"},{"buffer":0,"byteOffset":8688,"byteLength":5184,"byteStride":16,"name":"bufferViewFloatVec4"},{"buffer":0,"byteOffset":13872,"byteLength":2592,"byteStride":8,"name":"bufferViewFloatVec2"}],"buffers":[{"uri":"jian.bin","byteLength":16464}],"materials":[{"pbrMetallicRoughness":{"baseColorFactor":[1.0,1.0,1.0,1.0],"baseColorTexture":{"index":0,"texCoord":0},"metallicFactor":0.0,"roughnessFactor":0.450053632},"emissiveFactor":[0.0,0.0,0.0],"alphaMode":"OPAQUE","name":"jian"}],"textures":[{"sampler":0,"source":0,"name":"jian_baseColor.jpg"}],"images":[{"uri":"jian_baseColor.jpg"}],"samplers":[{"magFilter":9729,"minFilter":9987,"wrapS":10497,"wrapT":10497}]}