{"asset":{"version":"2.0","generator":"babylon.js glTF exporter for maya 2018 v1.3.0"},"scene":0,"scenes":[{"nodes":[0,1,2,3],"extensions":{}}],"nodes":[{"mesh":0,"translation":[2.96338153,-5.279994E-05,-0.9664526],"rotation":[0.0,0.0,0.0,1.0],"scale":[1.0,1.0,1.0],"name":"dixing"},{"mesh":1,"translation":[2.96338153,-5.279994E-05,-0.9664526],"rotation":[0.0,0.0,0.0,1.0],"scale":[1.0,1.0,1.0],"name":"wujian1"},{"mesh":2,"translation":[2.96338153,-5.279994E-05,-0.9664526],"rotation":[0.0,0.0,0.0,1.0],"scale":[1.0,1.0,1.0],"name":"wujian1_collider"},{"mesh":3,"translation":[2.96338153,-5.279994E-05,-0.9664526],"rotation":[0.0,0.0,0.0,1.0],"scale":[1.0,1.0,1.0],"name":"dixing_collider"}],"meshes":[{"primitives":[{"attributes":{"POSITION":1,"NORMAL":2,"TANGENT":3,"TEXCOORD_0":4},"indices":0,"mode":4,"material":0}],"name":"dixing"},{"primitives":[{"attributes":{"POSITION":6,"NORMAL":7,"TANGENT":8,"COLOR_0":9,"TEXCOORD_0":10},"indices":5,"mode":4,"material":1}],"name":"wujian1"},{"primitives":[{"attributes":{"POSITION":12,"NORMAL":13,"TANGENT":14,"COLOR_0":15,"TEXCOORD_0":16},"indices":11,"mode":4,"material":1}],"name":"wujian1_collider"},{"primitives":[{"attributes":{"POSITION":18,"NORMAL":19,"TANGENT":20,"TEXCOORD_0":21},"indices":17,"mode":4,"material":0}],"name":"dixing_collider"}],"accessors":[{"bufferView":0,"componentType":5123,"count":2892,"type":"SCALAR","name":"accessorIndices"},{"bufferView":1,"componentType":5126,"count":2453,"max":[4.51641226,0.9288635,0.9664526],"min":[-2.97647333,-0.3124407,-13.9941769],"type":"VEC3","name":"accessorPositions"},{"bufferView":1,"byteOffset":29436,"componentType":5126,"count":2453,"type":"VEC3","name":"accessorNormals"},{"bufferView":2,"componentType":5126,"count":2453,"type":"VEC4","name":"accessorTangents"},{"bufferView":3,"componentType":5126,"count":2453,"type":"VEC2","name":"accessorUVs"},{"bufferView":0,"byteOffset":5784,"componentType":5123,"count":16338,"type":"SCALAR","name":"accessorIndices"},{"bufferView":1,"byteOffset":58872,"componentType":5126,"count":10456,"max":[4.56679,4.53315639,0.8384948],"min":[-3.06948185,-0.475180775,-13.9573984],"type":"VEC3","name":"accessorPositions"},{"bufferView":1,"byteOffset":184344,"componentType":5126,"count":10456,"type":"VEC3","name":"accessorNormals"},{"bufferView":2,"byteOffset":39248,"componentType":5126,"count":10456,"type":"VEC4","name":"accessorTangents"},{"bufferView":2,"byteOffset":206544,"componentType":5126,"count":10456,"type":"VEC4","name":"accessorColors"},{"bufferView":3,"byteOffset":19624,"componentType":5126,"count":10456,"type":"VEC2","name":"accessorUVs"},{"bufferView":0,"byteOffset":38460,"componentType":5123,"count":16338,"type":"SCALAR","name":"accessorIndices"},{"bufferView":1,"byteOffset":309816,"componentType":5126,"count":10456,"max":[4.56679,4.53315639,0.8384948],"min":[-3.06948185,-0.475180775,-13.9573984],"type":"VEC3","name":"accessorPositions"},{"bufferView":1,"byteOffset":435288,"componentType":5126,"count":10456,"type":"VEC3","name":"accessorNormals"},{"bufferView":2,"byteOffset":373840,"componentType":5126,"count":10456,"type":"VEC4","name":"accessorTangents"},{"bufferView":2,"byteOffset":541136,"componentType":5126,"count":10456,"type":"VEC4","name":"accessorColors"},{"bufferView":3,"byteOffset":103272,"componentType":5126,"count":10456,"type":"VEC2","name":"accessorUVs"},{"bufferView":0,"byteOffset":71136,"componentType":5123,"count":2892,"type":"SCALAR","name":"accessorIndices"},{"bufferView":1,"byteOffset":560760,"componentType":5126,"count":2453,"max":[4.51641226,0.9288635,0.9664526],"min":[-2.97647333,-0.3124407,-13.9941769],"type":"VEC3","name":"accessorPositions"},{"bufferView":1,"byteOffset":590196,"componentType":5126,"count":2453,"type":"VEC3","name":"accessorNormals"},{"bufferView":2,"byteOffset":708432,"componentType":5126,"count":2453,"type":"VEC4","name":"accessorTangents"},{"bufferView":3,"byteOffset":186920,"componentType":5126,"count":2453,"type":"VEC2","name":"accessorUVs"}],"bufferViews":[{"buffer":0,"byteLength":76920,"name":"bufferViewScalar"},{"buffer":0,"byteOffset":76920,"byteLength":619632,"byteStride":12,"name":"bufferViewFloatVec3"},{"buffer":0,"byteOffset":696552,"byteLength":747680,"byteStride":16,"name":"bufferViewFloatVec4"},{"buffer":0,"byteOffset":1444232,"byteLength":206544,"byteStride":8,"name":"bufferViewFloatVec2"}],"buffers":[{"uri":"scene.bin","byteLength":1650776}],"materials":[{"pbrMetallicRoughness":{"baseColorFactor":[1.0,1.0,1.0,1.0],"baseColorTexture":{"index":0,"texCoord":0},"metallicFactor":0.0,"roughnessFactor":0.450053632},"emissiveFactor":[0.0,0.0,0.0],"alphaMode":"OPAQUE","name":"lambert3"},{"pbrMetallicRoughness":{"baseColorFactor":[1.0,1.0,1.0,1.0],"baseColorTexture":{"index":1,"texCoord":0},"metallicFactor":0.0,"roughnessFactor":0.450053632},"emissiveFactor":[0.0,0.0,0.0],"alphaMode":"OPAQUE","name":"lambert4"}],"textures":[{"sampler":0,"source":0,"name":"lambert3_baseColor.jpg"},{"sampler":1,"source":1,"name":"lambert4_baseColor.jpg"}],"images":[{"uri":"lambert3_baseColor.jpg"},{"uri":"lambert4_baseColor.jpg"}],"samplers":[{"magFilter":9729,"minFilter":9987,"wrapS":10497,"wrapT":10497},{"magFilter":9729,"minFilter":9987,"wrapS":10497,"wrapT":10497}]}