{"asset":{"version":"2.0","generator":"babylon.js glTF exporter for maya 2018 v1.3.0"},"scene":0,"scenes":[{"nodes":[0,1,2,3,4,5],"extensions":{}}],"nodes":[{"mesh":0,"translation":[0.0,0.0,0.0],"rotation":[-0.707106769,0.0,0.0,0.707106769],"scale":[1.0,1.0,1.0],"name":"wujian"},{"skin":0,"mesh":1,"translation":[4.494877,0.5028775,-0.7647455],"rotation":[-0.806978941,0.0,0.0,0.590580165],"scale":[1.0,1.0,1.0],"name":"button"},{"translation":[4.494877,0.5028775,-0.7647455],"rotation":[-0.806978941,0.0,0.0,0.590580165],"scale":[0.170178011,0.170178026,0.170178026],"name":"Bone001"},{"mesh":2,"translation":[0.0,0.0,0.0],"rotation":[-0.707106769,0.0,0.0,0.707106769],"scale":[1.0,1.0,1.0],"name":"Terrain"},{"mesh":3,"translation":[0.0,0.0,0.0],"rotation":[-0.707106769,0.0,0.0,0.707106769],"scale":[1.0,1.0,1.0],"name":"wujian_collider"},{"mesh":4,"translation":[0.0,0.0,0.0],"rotation":[-0.707106769,0.0,0.0,0.707106769],"scale":[1.0,1.0,1.0],"name":"Terrain_collider"}],"meshes":[{"primitives":[{"attributes":{"POSITION":1,"NORMAL":2,"TANGENT":3,"TEXCOORD_0":4},"indices":0,"mode":4,"material":0}],"name":"wujian"},{"primitives":[{"attributes":{"POSITION":6,"NORMAL":7,"TANGENT":8,"TEXCOORD_0":9,"JOINTS_0":10,"WEIGHTS_0":11},"indices":5,"mode":4,"material":0}],"name":"button"},{"primitives":[{"attributes":{"POSITION":13,"NORMAL":14,"TANGENT":15,"TEXCOORD_0":16},"indices":12,"mode":4,"material":1}],"name":"Terrain"},{"primitives":[{"attributes":{"POSITION":18,"NORMAL":19,"TANGENT":20,"TEXCOORD_0":21},"indices":17,"mode":4,"material":0}],"name":"wujian_collider"},{"primitives":[{"attributes":{"POSITION":23,"NORMAL":24,"TANGENT":25,"TEXCOORD_0":26},"indices":22,"mode":4,"material":1}],"name":"Terrain_collider"}],"accessors":[{"bufferView":0,"componentType":5123,"count":16554,"type":"SCALAR","name":"accessorIndices"},{"bufferView":1,"componentType":5126,"count":10556,"max":[7.530171,14.923851,4.533103],"min":[-0.1061,0.127958,-0.475234],"type":"VEC3","name":"accessorPositions"},{"bufferView":1,"byteOffset":126672,"componentType":5126,"count":10556,"type":"VEC3","name":"accessorNormals"},{"bufferView":2,"componentType":5126,"count":10556,"type":"VEC4","name":"accessorTangents"},{"bufferView":3,"componentType":5126,"count":10556,"type":"VEC2","name":"accessorUVs"},{"bufferView":0,"byteOffset":33108,"componentType":5123,"count":90,"type":"SCALAR","name":"accessorIndices"},{"bufferView":1,"byteOffset":253344,"componentType":5126,"count":64,"max":[0.210186109,0.0838551149,0.04492094],"min":[-0.210185915,-0.07982524,-0.0406946167],"type":"VEC3","name":"accessorPositions"},{"bufferView":1,"byteOffset":254112,"componentType":5126,"count":64,"type":"VEC3","name":"accessorNormals"},{"bufferView":2,"byteOffset":168896,"componentType":5126,"count":64,"type":"VEC4","name":"accessorTangents"},{"bufferView":3,"byteOffset":84448,"componentType":5126,"count":64,"type":"VEC2","name":"accessorUVs"},{"bufferView":4,"componentType":5123,"count":64,"type":"VEC4","name":"accessorJoints"},{"bufferView":2,"byteOffset":169920,"componentType":5126,"count":64,"type":"VEC4","name":"accessorWeights"},{"bufferView":0,"byteOffset":33288,"componentType":5123,"count":2892,"type":"SCALAR","name":"accessorIndices"},{"bufferView":1,"byteOffset":254880,"componentType":5126,"count":2459,"max":[7.479794,14.9606295,0.928811],"min":[-0.013092,0.0,-0.312494],"type":"VEC3","name":"accessorPositions"},{"bufferView":1,"byteOffset":284388,"componentType":5126,"count":2459,"type":"VEC3","name":"accessorNormals"},{"bufferView":2,"byteOffset":170944,"componentType":5126,"count":2459,"type":"VEC4","name":"accessorTangents"},{"bufferView":3,"byteOffset":84960,"componentType":5126,"count":2459,"type":"VEC2","name":"accessorUVs"},{"bufferView":0,"byteOffset":39072,"componentType":5123,"count":16554,"type":"SCALAR","name":"accessorIndices"},{"bufferView":1,"byteOffset":313896,"componentType":5126,"count":10556,"max":[7.530171,14.923851,4.533103],"min":[-0.1061,0.127958,-0.475234],"type":"VEC3","name":"accessorPositions"},{"bufferView":1,"byteOffset":440568,"componentType":5126,"count":10556,"type":"VEC3","name":"accessorNormals"},{"bufferView":2,"byteOffset":210288,"componentType":5126,"count":10556,"type":"VEC4","name":"accessorTangents"},{"bufferView":3,"byteOffset":104632,"componentType":5126,"count":10556,"type":"VEC2","name":"accessorUVs"},{"bufferView":0,"byteOffset":72180,"componentType":5123,"count":2892,"type":"SCALAR","name":"accessorIndices"},{"bufferView":1,"byteOffset":567240,"componentType":5126,"count":2459,"max":[7.479794,14.9606295,0.928811],"min":[-0.013092,0.0,-0.312494],"type":"VEC3","name":"accessorPositions"},{"bufferView":1,"byteOffset":596748,"componentType":5126,"count":2459,"type":"VEC3","name":"accessorNormals"},{"bufferView":2,"byteOffset":379184,"componentType":5126,"count":2459,"type":"VEC4","name":"accessorTangents"},{"bufferView":3,"byteOffset":189080,"componentType":5126,"count":2459,"type":"VEC2","name":"accessorUVs"},{"bufferView":5,"componentType":5126,"count":1,"type":"MAT4","name":"accessorInverseBindMatrices"},{"bufferView":6,"componentType":5126,"count":2,"max":[0.333333343],"min":[0.0],"type":"SCALAR","name":"accessorAnimationInput"},{"bufferView":7,"componentType":5126,"count":2,"type":"VEC3","name":"accessorAnimationPositions"},{"bufferView":8,"componentType":5126,"count":2,"type":"VEC4","name":"accessorAnimationRotations"},{"bufferView":7,"byteOffset":24,"componentType":5126,"count":2,"type":"VEC3","name":"accessorAnimationScales"},{"bufferView":6,"byteOffset":8,"componentType":5126,"count":9,"max":[0.266666681],"min":[0.0],"type":"SCALAR","name":"accessorAnimationInput"},{"bufferView":7,"byteOffset":48,"componentType":5126,"count":9,"type":"VEC3","name":"accessorAnimationPositions"},{"bufferView":8,"byteOffset":32,"componentType":5126,"count":9,"type":"VEC4","name":"accessorAnimationRotations"},{"bufferView":7,"byteOffset":156,"componentType":5126,"count":9,"type":"VEC3","name":"accessorAnimationScales"}],"bufferViews":[{"buffer":0,"byteLength":77964,"name":"bufferViewScalar"},{"buffer":0,"byteOffset":77964,"byteLength":626256,"byteStride":12,"name":"bufferViewFloatVec3"},{"buffer":0,"byteOffset":704220,"byteLength":418528,"byteStride":16,"name":"bufferViewFloatVec4"},{"buffer":0,"byteOffset":1122748,"byteLength":208752,"byteStride":8,"name":"bufferViewFloatVec2"},{"buffer":0,"byteOffset":1331500,"byteLength":512,"byteStride":8,"name":"bufferViewUnsignedShortVec4"},{"buffer":0,"byteOffset":1332012,"byteLength":64,"name":"bufferViewFloatMat4"},{"buffer":0,"byteOffset":1332076,"byteLength":44,"name":"bufferViewAnimationFloatScalar"},{"buffer":0,"byteOffset":1332120,"byteLength":264,"name":"bufferViewAnimationFloatVec3"},{"buffer":0,"byteOffset":1332384,"byteLength":176,"name":"bufferViewAnimationFloatVec4"}],"buffers":[{"uri":"scene.bin","byteLength":1332560}],"materials":[{"pbrMetallicRoughness":{"baseColorFactor":[1.0,1.0,1.0,1.0],"baseColorTexture":{"index":0,"texCoord":0},"metallicFactor":0.0,"roughnessFactor":0.450053632},"emissiveFactor":[0.0,0.0,0.0],"alphaMode":"OPAQUE","name":"wujian1"},{"pbrMetallicRoughness":{"baseColorFactor":[1.0,1.0,1.0,1.0],"baseColorTexture":{"index":1,"texCoord":0},"metallicFactor":0.0,"roughnessFactor":0.450053632},"emissiveFactor":[0.0,0.0,0.0],"alphaMode":"OPAQUE","name":"Terrain1"}],"textures":[{"sampler":0,"source":0,"name":"wujian1_baseColor.jpg"},{"sampler":1,"source":1,"name":"Terrain1_baseColor.jpg"}],"images":[{"uri":"wujian1_baseColor.jpg"},{"uri":"Terrain1_baseColor.jpg"}],"samplers":[{"magFilter":9729,"minFilter":9987,"wrapS":10497,"wrapT":10497},{"magFilter":9729,"minFilter":9987,"wrapS":10497,"wrapT":10497}],"animations":[{"channels":[{"sampler":0,"target":{"node":2,"path":"translation"}},{"sampler":1,"target":{"node":2,"path":"rotation"}},{"sampler":2,"target":{"node":2,"path":"scale"}}],"samplers":[{"input":28,"interpolation":"LINEAR","output":29},{"input":28,"interpolation":"LINEAR","output":30},{"input":28,"interpolation":"LINEAR","output":31}],"name":"ButtonUP"},{"channels":[{"sampler":0,"target":{"node":2,"path":"translation"}},{"sampler":1,"target":{"node":2,"path":"rotation"}},{"sampler":2,"target":{"node":2,"path":"scale"}}],"samplers":[{"input":32,"interpolation":"LINEAR","output":33},{"input":32,"interpolation":"LINEAR","output":34},{"input":32,"interpolation":"LINEAR","output":35}],"name":"ButtonDOWN"}],"skins":[{"inverseBindMatrices":27,"skeleton":2,"joints":[2],"name":"skeleton #0"}]}