{"asset":{"version":"2.0","generator":"babylon.js glTF exporter for maya 2018 v1.3.0"},"scene":0,"scenes":[{"nodes":[0,1],"extensions":{}}],"nodes":[{"mesh":0,"translation":[0.0,0.0,0.0],"rotation":[0.0,0.0,0.0,1.0],"scale":[1.0,1.0,1.0],"name":"wujian:Terrain:wujian:Terrain:wujian:Terrain:polySurface5"},{"mesh":1,"translation":[0.0,0.0,0.0],"rotation":[0.0,0.0,0.0,1.0],"scale":[1.0,1.0,1.0],"name":"polySurface1"}],"meshes":[{"primitives":[{"attributes":{"POSITION":1,"NORMAL":2,"TANGENT":3,"TEXCOORD_0":4},"indices":0,"mode":4,"material":0}],"name":"wujian:Terrain:wujian:Terrain:wujian:Terrain:polySurface5"},{"primitives":[{"attributes":{"POSITION":6,"NORMAL":7,"TANGENT":8,"COLOR_0":9,"TEXCOORD_0":10},"indices":5,"mode":4,"material":1}],"name":"polySurface1"}],"accessors":[{"bufferView":0,"componentType":5123,"count":2892,"type":"SCALAR","name":"accessorIndices"},{"bufferView":1,"componentType":5126,"count":2453,"max":[4.51641226,0.9288635,0.9664526],"min":[-2.97647333,-0.3124407,-13.9941769],"type":"VEC3","name":"accessorPositions"},{"bufferView":1,"byteOffset":29436,"componentType":5126,"count":2453,"type":"VEC3","name":"accessorNormals"},{"bufferView":2,"componentType":5126,"count":2453,"type":"VEC4","name":"accessorTangents"},{"bufferView":3,"componentType":5126,"count":2453,"type":"VEC2","name":"accessorUVs"},{"bufferView":0,"byteOffset":5784,"componentType":5123,"count":16338,"type":"SCALAR","name":"accessorIndices"},{"bufferView":1,"byteOffset":58872,"componentType":5126,"count":10456,"max":[4.56679,4.53315639,0.8384948],"min":[-3.06948185,-0.475180775,-13.9573984],"type":"VEC3","name":"accessorPositions"},{"bufferView":1,"byteOffset":184344,"componentType":5126,"count":10456,"type":"VEC3","name":"accessorNormals"},{"bufferView":2,"byteOffset":39248,"componentType":5126,"count":10456,"type":"VEC4","name":"accessorTangents"},{"bufferView":2,"byteOffset":206544,"componentType":5126,"count":10456,"type":"VEC4","name":"accessorColors"},{"bufferView":3,"byteOffset":19624,"componentType":5126,"count":10456,"type":"VEC2","name":"accessorUVs"}],"bufferViews":[{"buffer":0,"byteLength":38460,"name":"bufferViewScalar"},{"buffer":0,"byteOffset":38460,"byteLength":309816,"byteStride":12,"name":"bufferViewFloatVec3"},{"buffer":0,"byteOffset":348276,"byteLength":373840,"byteStride":16,"name":"bufferViewFloatVec4"},{"buffer":0,"byteOffset":722116,"byteLength":103272,"byteStride":8,"name":"bufferViewFloatVec2"}],"buffers":[{"uri":"sence.bin","byteLength":825388}],"materials":[{"pbrMetallicRoughness":{"baseColorFactor":[1.0,1.0,1.0,1.0],"baseColorTexture":{"index":0,"texCoord":0},"metallicFactor":0.0,"roughnessFactor":0.450053632},"emissiveFactor":[0.0,0.0,0.0],"alphaMode":"OPAQUE","name":"lambert4"},{"pbrMetallicRoughness":{"baseColorFactor":[1.0,1.0,1.0,1.0],"baseColorTexture":{"index":1,"texCoord":0},"metallicFactor":0.0,"roughnessFactor":0.450053632},"emissiveFactor":[0.0,0.0,0.0],"alphaMode":"OPAQUE","name":"lambert3"}],"textures":[{"sampler":0,"source":0,"name":"lambert4_baseColor.jpg"},{"sampler":1,"source":1,"name":"lambert3_baseColor.jpg"}],"images":[{"uri":"lambert4_baseColor.jpg"},{"uri":"lambert3_baseColor.jpg"}],"samplers":[{"magFilter":9729,"minFilter":9987,"wrapS":10497,"wrapT":10497},{"magFilter":9729,"minFilter":9987,"wrapS":10497,"wrapT":10497}]}