{"asset":{"version":"2.0","generator":"babylon.js glTF exporter for 3ds max 2017 v1.4.0"},"scene":0,"scenes":[{"nodes":[0,1,2],"extensions":{}}],"nodes":[{"mesh":0,"translation":[0.07536759,0.0003180522,-0.0256045386],"rotation":[0.0,0.0,0.0,1.0],"scale":[1.0,1.0,1.0],"name":"wujian_polySurface195"},{"mesh":1,"translation":[0.07536759,0.0003180522,-0.0256045386],"rotation":[0.0,0.0,0.0,1.0],"scale":[1.0,1.0,1.0],"name":"wujian_Terrain_Mesh"},{"translation":[0.0,0.0,0.0],"rotation":[0.0,0.0,0.0,1.0],"scale":[1.0,1.0,1.0],"name":"Default light"}],"meshes":[{"primitives":[{"attributes":{"POSITION":1,"NORMAL":2,"TEXCOORD_0":3},"indices":0,"mode":4,"material":0}],"name":"wujian_polySurface195"},{"primitives":[{"attributes":{"POSITION":5,"NORMAL":6,"TEXCOORD_0":7},"indices":4,"mode":4,"material":1}],"name":"wujian_Terrain_Mesh"}],"accessors":[{"bufferView":0,"componentType":5123,"count":9930,"type":"SCALAR","name":"accessorIndices"},{"bufferView":1,"componentType":5126,"count":9930,"max":[0.09770318,0.0500016548,0.0185808372],"min":[-0.06435685,-0.010448087,-0.263562739],"type":"VEC3","name":"accessorPositions"},{"bufferView":1,"byteOffset":119160,"componentType":5126,"count":9930,"type":"VEC3","name":"accessorNormals"},{"bufferView":2,"componentType":5126,"count":9930,"type":"VEC2","name":"accessorUVs"},{"bufferView":0,"byteOffset":19860,"componentType":5123,"count":2097,"type":"SCALAR","name":"accessorIndices"},{"bufferView":1,"byteOffset":238320,"componentType":5126,"count":2097,"max":[0.114716858,0.02359312,0.0245479066],"min":[-0.0752699,1.34619245E-06,-0.3554257],"type":"VEC3","name":"accessorPositions"},{"bufferView":1,"byteOffset":263484,"componentType":5126,"count":2097,"type":"VEC3","name":"accessorNormals"},{"bufferView":2,"byteOffset":79440,"componentType":5126,"count":2097,"type":"VEC2","name":"accessorUVs"}],"bufferViews":[{"buffer":0,"byteLength":24056,"name":"bufferViewScalar"},{"buffer":0,"byteOffset":24056,"byteLength":288648,"byteStride":12,"name":"bufferViewFloatVec3"},{"buffer":0,"byteOffset":312704,"byteLength":96216,"byteStride":8,"name":"bufferViewFloatVec2"}],"buffers":[{"uri":"archery.bin","byteLength":408920}],"materials":[{"pbrMetallicRoughness":{"baseColorFactor":[0.5,0.5,0.5,1.0],"baseColorTexture":{"index":0,"texCoord":0},"metallicFactor":0.0,"roughnessFactor":0.450053632},"emissiveFactor":[0.0,0.0,0.0],"alphaMode":"BLEND","name":"03 - Default"},{"pbrMetallicRoughness":{"baseColorFactor":[0.294117659,0.294117659,0.294117659,1.0],"metallicFactor":0.0,"roughnessFactor":0.450053632},"emissiveFactor":[0.0,0.0,0.0],"alphaMode":"OPAQUE","name":"07 - Default"}],"textures":[{"sampler":0,"source":0,"name":"tex.png"}],"images":[{"uri":"tex.png"}],"samplers":[{"magFilter":9729,"minFilter":9987,"wrapS":10497,"wrapT":10497}]}