{"asset":{"version":"2.0","generator":"babylon.js glTF exporter for maya 2018 v1.3.0"},"scene":0,"scenes":[{"nodes":[0,1],"extensions":{}}],"nodes":[{"skin":0,"mesh":0,"translation":[0.0,0.0,1.43599357E-06],"rotation":[-0.707106769,0.0,0.0,0.707106769],"scale":[1.0,1.0,1.0],"name":"jiantou"},{"translation":[0.0,0.0,1.52902362E-06],"rotation":[6.657903E-08,0.0,0.0,1.0],"scale":[1.0,1.0,1.0],"name":"Dummy001"}],"meshes":[{"primitives":[{"attributes":{"POSITION":1,"NORMAL":2,"TANGENT":3,"TEXCOORD_0":4,"JOINTS_0":5,"WEIGHTS_0":6},"indices":0,"mode":4,"material":0}],"name":"jiantou"}],"accessors":[{"bufferView":0,"componentType":5123,"count":264,"type":"SCALAR","name":"accessorIndices"},{"bufferView":1,"componentType":5126,"count":162,"max":[13.3417988,3.53925729,21.3879814],"min":[-13.3417988,-3.53925753,-21.3879814],"type":"VEC3","name":"accessorPositions"},{"bufferView":1,"byteOffset":1944,"componentType":5126,"count":162,"type":"VEC3","name":"accessorNormals"},{"bufferView":2,"componentType":5126,"count":162,"type":"VEC4","name":"accessorTangents"},{"bufferView":3,"componentType":5126,"count":162,"type":"VEC2","name":"accessorUVs"},{"bufferView":4,"componentType":5123,"count":162,"type":"VEC4","name":"accessorJoints"},{"bufferView":2,"byteOffset":2592,"componentType":5126,"count":162,"type":"VEC4","name":"accessorWeights"},{"bufferView":5,"componentType":5126,"count":1,"type":"MAT4","name":"accessorInverseBindMatrices"},{"bufferView":6,"componentType":5126,"count":41,"max":[1.33333337],"min":[0.0],"type":"SCALAR","name":"accessorAnimationInput"},{"bufferView":7,"componentType":5126,"count":41,"type":"VEC3","name":"accessorAnimationPositions"},{"bufferView":8,"componentType":5126,"count":41,"type":"VEC4","name":"accessorAnimationRotations"},{"bufferView":7,"byteOffset":492,"componentType":5126,"count":41,"type":"VEC3","name":"accessorAnimationScales"}],"bufferViews":[{"buffer":0,"byteLength":528,"name":"bufferViewScalar"},{"buffer":0,"byteOffset":528,"byteLength":3888,"byteStride":12,"name":"bufferViewFloatVec3"},{"buffer":0,"byteOffset":4416,"byteLength":5184,"byteStride":16,"name":"bufferViewFloatVec4"},{"buffer":0,"byteOffset":9600,"byteLength":1296,"byteStride":8,"name":"bufferViewFloatVec2"},{"buffer":0,"byteOffset":10896,"byteLength":1296,"byteStride":8,"name":"bufferViewUnsignedShortVec4"},{"buffer":0,"byteOffset":12192,"byteLength":64,"name":"bufferViewFloatMat4"},{"buffer":0,"byteOffset":12256,"byteLength":164,"name":"bufferViewAnimationFloatScalar"},{"buffer":0,"byteOffset":12420,"byteLength":984,"name":"bufferViewAnimationFloatVec3"},{"buffer":0,"byteOffset":13404,"byteLength":656,"name":"bufferViewAnimationFloatVec4"}],"buffers":[{"uri":"jiantou.bin","byteLength":14060}],"materials":[{"pbrMetallicRoughness":{"baseColorFactor":[1.0,1.0,1.0,1.0],"baseColorTexture":{"index":0,"texCoord":0},"metallicFactor":0.0,"roughnessFactor":0.450053632},"emissiveFactor":[0.0,0.0,0.0],"alphaMode":"OPAQUE","name":"jiantou1"}],"textures":[{"sampler":0,"source":0,"name":"jiantou1_baseColor.jpg"}],"images":[{"uri":"jiantou1_baseColor.jpg"}],"samplers":[{"magFilter":9729,"minFilter":9987,"wrapS":10497,"wrapT":10497}],"animations":[{"channels":[{"sampler":0,"target":{"node":1,"path":"translation"}},{"sampler":1,"target":{"node":1,"path":"rotation"}},{"sampler":2,"target":{"node":1,"path":"scale"}}],"samplers":[{"input":8,"interpolation":"LINEAR","output":9},{"input":8,"interpolation":"LINEAR","output":10},{"input":8,"interpolation":"LINEAR","output":11}],"name":"Idle"}],"skins":[{"inverseBindMatrices":7,"skeleton":1,"joints":[1],"name":"skeleton #0"}]}