{"asset":{"version":"2.0","generator":"babylon.js glTF exporter for maya 2018 v1.3.0"},"scene":0,"scenes":[{"nodes":[0,1,2],"extensions":{}}],"nodes":[{"mesh":0,"translation":[0.0,0.0,0.0],"rotation":[-0.707106769,0.0,0.0,0.707106769],"scale":[1.0,1.0,1.0],"name":"gong"},{"skin":0,"mesh":1,"translation":[0.0,0.0,0.0],"rotation":[-0.707106769,0.0,0.0,0.707106769],"scale":[1.0,1.0,1.0],"name":"jianzhi"},{"translation":[0.0,0.0,97.9436646],"rotation":[-0.492844,0.492844,0.507055044,0.507055044],"scale":[1.0,1.0,1.0],"name":"Bone006"}],"meshes":[{"primitives":[{"attributes":{"POSITION":1,"NORMAL":2,"TANGENT":3,"TEXCOORD_0":4},"indices":0,"mode":4,"material":0}],"name":"gong"},{"primitives":[{"attributes":{"POSITION":6,"NORMAL":7,"TANGENT":8,"TEXCOORD_0":9,"JOINTS_0":10,"WEIGHTS_0":11},"indices":5,"mode":4,"material":0}],"name":"jianzhi"}],"accessors":[{"bufferView":0,"componentType":5123,"count":2892,"type":"SCALAR","name":"accessorIndices"},{"bufferView":1,"componentType":5126,"count":2356,"max":[126.877014,50.752697,3.672375],"min":[-126.892632,-98.56114,-4.501633],"type":"VEC3","name":"accessorPositions"},{"bufferView":1,"byteOffset":28272,"componentType":5126,"count":2356,"type":"VEC3","name":"accessorNormals"},{"bufferView":2,"componentType":5126,"count":2356,"type":"VEC4","name":"accessorTangents"},{"bufferView":3,"componentType":5126,"count":2356,"type":"VEC2","name":"accessorUVs"},{"bufferView":0,"byteOffset":5784,"componentType":5123,"count":456,"type":"SCALAR","name":"accessorIndices"},{"bufferView":1,"byteOffset":56544,"componentType":5126,"count":324,"max":[6.971413,68.76061,9.404286],"min":[-6.97142649,-96.93177,-5.93667841],"type":"VEC3","name":"accessorPositions"},{"bufferView":1,"byteOffset":60432,"componentType":5126,"count":324,"type":"VEC3","name":"accessorNormals"},{"bufferView":2,"byteOffset":37696,"componentType":5126,"count":324,"type":"VEC4","name":"accessorTangents"},{"bufferView":3,"byteOffset":18848,"componentType":5126,"count":324,"type":"VEC2","name":"accessorUVs"},{"bufferView":4,"componentType":5123,"count":324,"type":"VEC4","name":"accessorJoints"},{"bufferView":2,"byteOffset":42880,"componentType":5126,"count":324,"type":"VEC4","name":"accessorWeights"},{"bufferView":5,"componentType":5126,"count":1,"type":"MAT4","name":"accessorInverseBindMatrices"},{"bufferView":6,"componentType":5126,"count":2,"max":[0.5],"min":[0.0],"type":"SCALAR","name":"accessorAnimationInput"},{"bufferView":7,"componentType":5126,"count":2,"type":"VEC4","name":"accessorAnimationRotations"},{"bufferView":6,"byteOffset":8,"componentType":5126,"count":2,"max":[0.5],"min":[0.0],"type":"SCALAR","name":"accessorAnimationInput"},{"bufferView":7,"byteOffset":32,"componentType":5126,"count":2,"type":"VEC4","name":"accessorAnimationRotations"},{"bufferView":6,"byteOffset":16,"componentType":5126,"count":16,"max":[0.5],"min":[0.0],"type":"SCALAR","name":"accessorAnimationInput"},{"bufferView":8,"componentType":5126,"count":16,"type":"VEC3","name":"accessorAnimationPositions"},{"bufferView":7,"byteOffset":64,"componentType":5126,"count":16,"type":"VEC4","name":"accessorAnimationRotations"},{"bufferView":8,"byteOffset":192,"componentType":5126,"count":16,"type":"VEC3","name":"accessorAnimationScales"},{"bufferView":6,"byteOffset":80,"componentType":5126,"count":2,"max":[0.4],"min":[0.0],"type":"SCALAR","name":"accessorAnimationInput"},{"bufferView":7,"byteOffset":320,"componentType":5126,"count":2,"type":"VEC4","name":"accessorAnimationRotations"},{"bufferView":6,"byteOffset":88,"componentType":5126,"count":2,"max":[0.4],"min":[0.0],"type":"SCALAR","name":"accessorAnimationInput"},{"bufferView":7,"byteOffset":352,"componentType":5126,"count":2,"type":"VEC4","name":"accessorAnimationRotations"},{"bufferView":6,"byteOffset":96,"componentType":5126,"count":2,"max":[0.4],"min":[0.0],"type":"SCALAR","name":"accessorAnimationInput"},{"bufferView":8,"byteOffset":384,"componentType":5126,"count":2,"type":"VEC3","name":"accessorAnimationPositions"},{"bufferView":7,"byteOffset":384,"componentType":5126,"count":2,"type":"VEC4","name":"accessorAnimationRotations"},{"bufferView":8,"byteOffset":408,"componentType":5126,"count":2,"type":"VEC3","name":"accessorAnimationScales"},{"bufferView":6,"byteOffset":104,"componentType":5126,"count":2,"max":[0.233333334],"min":[0.0],"type":"SCALAR","name":"accessorAnimationInput"},{"bufferView":7,"byteOffset":416,"componentType":5126,"count":2,"type":"VEC4","name":"accessorAnimationRotations"},{"bufferView":6,"byteOffset":112,"componentType":5126,"count":2,"max":[0.233333334],"min":[0.0],"type":"SCALAR","name":"accessorAnimationInput"},{"bufferView":7,"byteOffset":448,"componentType":5126,"count":2,"type":"VEC4","name":"accessorAnimationRotations"},{"bufferView":6,"byteOffset":120,"componentType":5126,"count":7,"max":[0.233333334],"min":[0.0],"type":"SCALAR","name":"accessorAnimationInput"},{"bufferView":8,"byteOffset":432,"componentType":5126,"count":7,"type":"VEC3","name":"accessorAnimationPositions"},{"bufferView":7,"byteOffset":480,"componentType":5126,"count":7,"type":"VEC4","name":"accessorAnimationRotations"},{"bufferView":8,"byteOffset":516,"componentType":5126,"count":7,"type":"VEC3","name":"accessorAnimationScales"}],"bufferViews":[{"buffer":0,"byteLength":6696,"name":"bufferViewScalar"},{"buffer":0,"byteOffset":6696,"byteLength":64320,"byteStride":12,"name":"bufferViewFloatVec3"},{"buffer":0,"byteOffset":71016,"byteLength":48064,"byteStride":16,"name":"bufferViewFloatVec4"},{"buffer":0,"byteOffset":119080,"byteLength":21440,"byteStride":8,"name":"bufferViewFloatVec2"},{"buffer":0,"byteOffset":140520,"byteLength":2592,"byteStride":8,"name":"bufferViewUnsignedShortVec4"},{"buffer":0,"byteOffset":143112,"byteLength":64,"name":"bufferViewFloatMat4"},{"buffer":0,"byteOffset":143176,"byteLength":148,"name":"bufferViewAnimationFloatScalar"},{"buffer":0,"byteOffset":143324,"byteLength":592,"name":"bufferViewAnimationFloatVec4"},{"buffer":0,"byteOffset":143916,"byteLength":600,"name":"bufferViewAnimationFloatVec3"}],"buffers":[{"uri":"gongjiandonghua.bin","byteLength":144516}],"materials":[{"pbrMetallicRoughness":{"baseColorFactor":[1.0,1.0,1.0,1.0],"baseColorTexture":{"index":0,"texCoord":0},"metallicFactor":0.0,"roughnessFactor":0.450053632},"emissiveFactor":[0.0,0.0,0.0],"alphaMode":"OPAQUE","name":"lambert2"}],"textures":[{"sampler":0,"source":0,"name":"lambert2_baseColor.jpg"}],"images":[{"uri":"lambert2_baseColor.jpg"}],"samplers":[{"magFilter":9729,"minFilter":9987,"wrapS":10497,"wrapT":10497}],"animations":[{"channels":[{"sampler":0,"target":{"node":0,"path":"rotation"}},{"sampler":1,"target":{"node":1,"path":"rotation"}},{"sampler":2,"target":{"node":2,"path":"translation"}},{"sampler":3,"target":{"node":2,"path":"rotation"}},{"sampler":4,"target":{"node":2,"path":"scale"}}],"samplers":[{"input":13,"interpolation":"LINEAR","output":14},{"input":15,"interpolation":"LINEAR","output":16},{"input":17,"interpolation":"LINEAR","output":18},{"input":17,"interpolation":"LINEAR","output":19},{"input":17,"interpolation":"LINEAR","output":20}],"name":"pull"},{"channels":[{"sampler":0,"target":{"node":0,"path":"rotation"}},{"sampler":1,"target":{"node":1,"path":"rotation"}},{"sampler":2,"target":{"node":2,"path":"translation"}},{"sampler":3,"target":{"node":2,"path":"rotation"}},{"sampler":4,"target":{"node":2,"path":"scale"}}],"samplers":[{"input":21,"interpolation":"LINEAR","output":22},{"input":23,"interpolation":"LINEAR","output":24},{"input":25,"interpolation":"LINEAR","output":26},{"input":25,"interpolation":"LINEAR","output":27},{"input":25,"interpolation":"LINEAR","output":28}],"name":"hold"},{"channels":[{"sampler":0,"target":{"node":0,"path":"rotation"}},{"sampler":1,"target":{"node":1,"path":"rotation"}},{"sampler":2,"target":{"node":2,"path":"translation"}},{"sampler":3,"target":{"node":2,"path":"rotation"}},{"sampler":4,"target":{"node":2,"path":"scale"}}],"samplers":[{"input":29,"interpolation":"LINEAR","output":30},{"input":31,"interpolation":"LINEAR","output":32},{"input":33,"interpolation":"LINEAR","output":34},{"input":33,"interpolation":"LINEAR","output":35},{"input":33,"interpolation":"LINEAR","output":36}],"name":"shoot"}],"skins":[{"inverseBindMatrices":12,"skeleton":2,"joints":[2],"name":"skeleton #0"}]}