{"asset":{"version":"2.0","generator":"babylon.js glTF exporter for maya 2018 v1.3.0"},"scene":0,"scenes":[{"nodes":[0,1],"extensions":{}}],"nodes":[{"skin":0,"mesh":0,"translation":[0.0,0.0,0.0],"rotation":[-0.707106769,0.0,0.0,0.707106769],"scale":[1.0,1.0,1.0],"name":"birdPM3D_Sphere3D_6_birdPM3D_Sphere3D_6_pSphere2"},{"translation":[0.0,-14.4495544,0.0],"rotation":[-0.7071067,0.0,0.0,0.7071068],"scale":[1.0,0.9999999,0.9999999],"name":"Bone001"}],"meshes":[{"primitives":[{"attributes":{"POSITION":1,"NORMAL":2,"TANGENT":3,"TEXCOORD_0":4,"JOINTS_0":5,"WEIGHTS_0":6},"indices":0,"mode":4,"material":0}],"name":"birdPM3D_Sphere3D_6_birdPM3D_Sphere3D_6_pSphere2"}],"accessors":[{"bufferView":0,"componentType":5123,"count":1014,"type":"SCALAR","name":"accessorIndices"},{"bufferView":1,"componentType":5126,"count":742,"max":[110.432373,110.432358,53.3980331],"min":[-110.432358,-110.432365,-82.2971344],"type":"VEC3","name":"accessorPositions"},{"bufferView":1,"byteOffset":8904,"componentType":5126,"count":742,"type":"VEC3","name":"accessorNormals"},{"bufferView":2,"componentType":5126,"count":742,"type":"VEC4","name":"accessorTangents"},{"bufferView":3,"componentType":5126,"count":742,"type":"VEC2","name":"accessorUVs"},{"bufferView":4,"componentType":5123,"count":742,"type":"VEC4","name":"accessorJoints"},{"bufferView":2,"byteOffset":11872,"componentType":5126,"count":742,"type":"VEC4","name":"accessorWeights"},{"bufferView":5,"componentType":5126,"count":1,"type":"MAT4","name":"accessorInverseBindMatrices"},{"bufferView":6,"componentType":5126,"count":17,"max":[0.533333361],"min":[0.0],"type":"SCALAR","name":"accessorAnimationInput"},{"bufferView":7,"componentType":5126,"count":17,"type":"VEC3","name":"accessorAnimationPositions"},{"bufferView":8,"componentType":5126,"count":17,"type":"VEC4","name":"accessorAnimationRotations"},{"bufferView":7,"byteOffset":204,"componentType":5126,"count":17,"type":"VEC3","name":"accessorAnimationScales"},{"bufferView":6,"byteOffset":68,"componentType":5126,"count":22,"max":[0.7],"min":[0.0],"type":"SCALAR","name":"accessorAnimationInput"},{"bufferView":7,"byteOffset":408,"componentType":5126,"count":22,"type":"VEC3","name":"accessorAnimationPositions"},{"bufferView":8,"byteOffset":272,"componentType":5126,"count":22,"type":"VEC4","name":"accessorAnimationRotations"},{"bufferView":7,"byteOffset":672,"componentType":5126,"count":22,"type":"VEC3","name":"accessorAnimationScales"},{"bufferView":6,"byteOffset":156,"componentType":5126,"count":61,"max":[2.0],"min":[0.0],"type":"SCALAR","name":"accessorAnimationInput"},{"bufferView":7,"byteOffset":936,"componentType":5126,"count":61,"type":"VEC3","name":"accessorAnimationPositions"},{"bufferView":8,"byteOffset":624,"componentType":5126,"count":61,"type":"VEC4","name":"accessorAnimationRotations"},{"bufferView":7,"byteOffset":1668,"componentType":5126,"count":61,"type":"VEC3","name":"accessorAnimationScales"},{"bufferView":6,"byteOffset":400,"componentType":5126,"count":61,"max":[2.0],"min":[0.0],"type":"SCALAR","name":"accessorAnimationInput"},{"bufferView":7,"byteOffset":2400,"componentType":5126,"count":61,"type":"VEC3","name":"accessorAnimationPositions"},{"bufferView":8,"byteOffset":1600,"componentType":5126,"count":61,"type":"VEC4","name":"accessorAnimationRotations"},{"bufferView":7,"byteOffset":3132,"componentType":5126,"count":61,"type":"VEC3","name":"accessorAnimationScales"}],"bufferViews":[{"buffer":0,"byteLength":2028,"name":"bufferViewScalar"},{"buffer":0,"byteOffset":2028,"byteLength":17808,"byteStride":12,"name":"bufferViewFloatVec3"},{"buffer":0,"byteOffset":19836,"byteLength":23744,"byteStride":16,"name":"bufferViewFloatVec4"},{"buffer":0,"byteOffset":43580,"byteLength":5936,"byteStride":8,"name":"bufferViewFloatVec2"},{"buffer":0,"byteOffset":49516,"byteLength":5936,"byteStride":8,"name":"bufferViewUnsignedShortVec4"},{"buffer":0,"byteOffset":55452,"byteLength":64,"name":"bufferViewFloatMat4"},{"buffer":0,"byteOffset":55516,"byteLength":644,"name":"bufferViewAnimationFloatScalar"},{"buffer":0,"byteOffset":56160,"byteLength":3864,"name":"bufferViewAnimationFloatVec3"},{"buffer":0,"byteOffset":60024,"byteLength":2576,"name":"bufferViewAnimationFloatVec4"}],"buffers":[{"uri":"ufo.bin","byteLength":62600}],"materials":[{"pbrMetallicRoughness":{"baseColorFactor":[1.0,1.0,1.0,1.0],"baseColorTexture":{"index":0,"texCoord":0},"metallicFactor":0.0,"roughnessFactor":0.450053632},"emissiveFactor":[0.0,0.0,0.0],"alphaMode":"OPAQUE","name":"xiaodongwu"}],"textures":[{"sampler":0,"source":0,"name":"xiaodongwu_baseColor.jpg"}],"images":[{"uri":"xiaodongwu_baseColor.jpg"}],"samplers":[{"magFilter":9729,"minFilter":9987,"wrapS":10497,"wrapT":10497}],"animations":[{"channels":[{"sampler":0,"target":{"node":1,"path":"translation"}},{"sampler":1,"target":{"node":1,"path":"rotation"}},{"sampler":2,"target":{"node":1,"path":"scale"}}],"samplers":[{"input":8,"interpolation":"LINEAR","output":9},{"input":8,"interpolation":"LINEAR","output":10},{"input":8,"interpolation":"LINEAR","output":11}],"name":"Spawn"},{"channels":[{"sampler":0,"target":{"node":1,"path":"translation"}},{"sampler":1,"target":{"node":1,"path":"rotation"}},{"sampler":2,"target":{"node":1,"path":"scale"}}],"samplers":[{"input":12,"interpolation":"LINEAR","output":13},{"input":12,"interpolation":"LINEAR","output":14},{"input":12,"interpolation":"LINEAR","output":15}],"name":"Die"},{"channels":[{"sampler":0,"target":{"node":1,"path":"translation"}},{"sampler":1,"target":{"node":1,"path":"rotation"}},{"sampler":2,"target":{"node":1,"path":"scale"}}],"samplers":[{"input":16,"interpolation":"LINEAR","output":17},{"input":16,"interpolation":"LINEAR","output":18},{"input":16,"interpolation":"LINEAR","output":19}],"name":"Idle"},{"channels":[{"sampler":0,"target":{"node":1,"path":"translation"}},{"sampler":1,"target":{"node":1,"path":"rotation"}},{"sampler":2,"target":{"node":1,"path":"scale"}}],"samplers":[{"input":20,"interpolation":"LINEAR","output":21},{"input":20,"interpolation":"LINEAR","output":22},{"input":20,"interpolation":"LINEAR","output":23}],"name":"Walk"}],"skins":[{"inverseBindMatrices":7,"skeleton":1,"joints":[1],"name":"skeleton #0"}]}